<svg xmlns="http://www.w3.org/2000/svg" viewBox="0 0 79.23 12.14"><defs><style>.cls-1{fill:#51402D;}</style></defs>
<g id="Layer_2" data-name="Layer 2"><g id="Layer_1-2" data-name="Layer 1"><rect class="cls-1" x="41.68" y="2.95" width="0.26" height="7.46"/><rect class="cls-1" x="46.3" y="4.71" width="0.59" height="2.67"/><path class="cls-1" d="M47.48,5.45H48v.27h0a.66.66,0,0,1,.58-.32c.57,0,.71.32.71.79V7.38h-.53V6.29c0-.32-.09-.47-.34-.47S48,6,48,6.37v1h-.53Z"/><path class="cls-1" d="M50.24,6.76c0,.23.2.32.41.32S51,7,51,6.83s-.22-.21-.6-.3-.61-.17-.61-.51.42-.62.84-.62.81.14.85.62H51c0-.21-.17-.27-.37-.27s-.29,0-.29.18.3.22.6.29.61.18.61.54c0,.51-.44.68-.88.68s-.88-.17-.91-.68Z"/><path class="cls-1" d="M52.64,5.45H53v.36h-.39v1c0,.18,0,.23.22.23L53,7v.42h-.31c-.33,0-.61-.07-.61-.45V5.81h-.32V5.45h.32V4.87h.53Z"/><path class="cls-1" d="M54,5.15h-.53V4.71H54Zm-.53.3H54V7.38h-.53Z"/><path class="cls-1" d="M55.18,5.45h.39v.36h-.39v1c0,.18,0,.23.22.23l.17,0v.42h-.31c-.33,0-.61-.07-.61-.45V5.81h-.32V5.45h.32V4.87h.53Z"/><path class="cls-1" d="M57.77,7.38h-.51V7.11h0a.69.69,0,0,1-.59.33c-.56,0-.71-.32-.71-.8V5.45h.53V6.54c0,.32.1.48.35.48s.41-.16.41-.56v-1h.53Z"/><path class="cls-1" d="M59,5.45h.39v.36H59v1c0,.18.05.23.23.23l.16,0v.42h-.31c-.32,0-.61-.07-.61-.45V5.81h-.32V5.45h.32V4.87H59Z"/><path class="cls-1" d="M62.3,7.14h0a.64.64,0,0,1-.59.3c-.58,0-.86-.5-.86-1a.89.89,0,0,1,.85-1,.66.66,0,0,1,.57.29h0v-1h.53V7.38h-.5ZM61.83,5.8c-.34,0-.46.3-.46.62s.14.62.46.62.46-.31.46-.63-.11-.61-.46-.61"/><path class="cls-1" d="M63.77,6.55c0,.33.18.49.48.49a.44.44,0,0,0,.41-.25h.47a.88.88,0,0,1-.9.65,1,1,0,0,1-1-1,1,1,0,1,1,1.92.13Zm.86-.34c0-.27-.16-.41-.42-.41a.42.42,0,0,0-.44.41Z"/><rect class="cls-1" x="65.63" y="4.71" width="0.53" height="2.67"/><polygon class="cls-1" points="68.52 5.21 67.72 5.21 67.72 4.71 69.91 4.71 69.91 5.21 69.11 5.21 69.11 7.38 68.52 7.38 68.52 5.21"/><path class="cls-1" d="M70.31,6.55c0,.33.18.49.48.49a.47.47,0,0,0,.42-.25h.46a.87.87,0,0,1-.9.65,1,1,0,0,1-1-1,1,1,0,1,1,1.93.13Zm.87-.34c-.05-.27-.17-.41-.43-.41a.42.42,0,0,0-.44.41Z"/><path class="cls-1" d="M72.13,6c0-.49.48-.64.91-.64s.85.08.85.55V7a1.16,1.16,0,0,0,.06.43h-.53a.58.58,0,0,1,0-.18.92.92,0,0,1-.65.24c-.37,0-.66-.19-.66-.58s.33-.55.66-.59.63,0,.63-.25-.16-.27-.35-.27-.33.08-.35.29Zm1.23.4c-.09.08-.28.08-.44.11s-.32.09-.32.28.15.25.33.25a.4.4,0,0,0,.43-.44Z"/><path class="cls-1" d="M75.1,5.45h.39v.36H75.1v1c0,.18.05.23.23.23l.16,0v.42h-.31c-.32,0-.61-.07-.61-.45V5.81h-.32V5.45h.32V4.87h.53Z"/><path class="cls-1" d="M75.88,5.45h.5v.36h0A.68.68,0,0,1,77,5.4l.12,0v.49l-.19,0c-.39,0-.52.28-.52.62v.87h-.53Z"/><path class="cls-1" d="M77.83,6.55c0,.33.18.49.48.49a.44.44,0,0,0,.41-.25h.47a.88.88,0,0,1-.9.65,1,1,0,0,1-1-1,1,1,0,1,1,1.92.13Zm.87-.34c0-.27-.17-.41-.43-.41a.42.42,0,0,0-.44.41Z"/><path class="cls-1" d="M36,8.69h-.66c0-.61.59-.8,1.13-.8s1,.11,1,.68V9.82a1.25,1.25,0,0,0,.09.54H37a1,1,0,0,1,0-.24,1.09,1.09,0,0,1-.81.3.71.71,0,0,1-.81-.72c0-.54.41-.67.81-.73s.78,0,.78-.31-.19-.33-.42-.33-.42.1-.44.36m.86.74V9.18c-.11.1-.34.1-.54.14s-.39.11-.39.35.19.31.4.31a.48.48,0,0,0,.53-.55m-4.34.93V8h.63v.33a.9.9,0,0,1,.75-.4c.7,0,.88.4.88,1v1.48h-.66V9c0-.39-.12-.59-.42-.59s-.52.2-.52.69v1.26Zm-2.38-1.2c0,.38.13.77.58.77s.58-.39.58-.77-.14-.77-.58-.77-.58.38-.58.77m-.66,0a1.24,1.24,0,1,1,2.48,0,1.24,1.24,0,1,1-2.48,0M28.34,7H29v3.32h-.66ZM26.06,8.9h1.07c-.06-.34-.2-.51-.52-.51a.52.52,0,0,0-.55.51m1.73.42H26.06c0,.41.22.61.59.61a.55.55,0,0,0,.52-.32h.58a1.08,1.08,0,0,1-1.13.81A1.17,1.17,0,0,1,25.4,9.16a1.21,1.21,0,1,1,2.39.16M24.94,8.8H24.3a.44.44,0,0,0-.49-.41c-.42,0-.56.42-.56.78s.13.76.55.76a.51.51,0,0,0,.52-.49H25a1.08,1.08,0,0,1-1.16,1,1.17,1.17,0,0,1-1.21-1.23,1.19,1.19,0,0,1,1.23-1.3,1,1,0,0,1,1.12.91m-4.17,1.56V8h.63V8.4a.88.88,0,0,1,.78-.51l.14,0v.62a.88.88,0,0,0-.24,0c-.48,0-.65.35-.65.77v1.09ZM18.6,8.69h-.66c0-.61.59-.8,1.13-.8s1.06.11,1.06.68V9.82a1.28,1.28,0,0,0,.08.54h-.67a1,1,0,0,1,0-.24,1.11,1.11,0,0,1-.81.3c-.46,0-.82-.23-.82-.72s.41-.67.82-.73.78,0,.78-.31-.2-.33-.43-.33-.41.1-.44.36m.87.74V9.18a1.38,1.38,0,0,1-.55.14c-.2,0-.39.11-.39.35s.19.31.4.31a.49.49,0,0,0,.54-.55M15.36,7.61v.77h.74c.25,0,.44-.11.44-.39s-.24-.38-.5-.38Zm-.73,2.75V7h1.56c.63,0,1.06.21,1.06.82a.71.71,0,0,1-.45.69.82.82,0,0,1,.61.85c0,.67-.57,1-1.17,1Zm.73-1.48v.91h.78c.29,0,.54-.09.54-.44s-.21-.47-.53-.47ZM35.84,4.2c0,.38.13.77.58.77S37,4.58,37,4.2s-.13-.77-.58-.77-.58.39-.58.77m-.66,0a1.24,1.24,0,1,1,2.48,0,1.24,1.24,0,1,1-2.48,0M37.24,2l-.71.66h-.46L36.51,2Zm-2.78.59H33.8V2.08h.66ZM33.8,3h.66V5.4H33.8Zm-.71.84h-.64A.45.45,0,0,0,32,3.43c-.42,0-.56.43-.56.78S31.53,5,32,5a.51.51,0,0,0,.52-.49h.64a1.07,1.07,0,0,1-1.16,1,1.17,1.17,0,0,1-1.21-1.23A1.19,1.19,0,0,1,32,2.93a1,1,0,0,1,1.12.91m-4.57-.1h-.65c0-.62.58-.81,1.12-.81s1.06.11,1.06.69V4.86a1.28,1.28,0,0,0,.08.54h-.67a1.89,1.89,0,0,1-.05-.23,1.1,1.1,0,0,1-.8.29c-.46,0-.82-.22-.82-.72s.41-.67.82-.72.78,0,.78-.32-.2-.33-.43-.33a.39.39,0,0,0-.44.37m.87.73V4.22a1.23,1.23,0,0,1-.55.14c-.21,0-.39.11-.39.36s.19.3.4.3a.49.49,0,0,0,.54-.55M26.75,2.28V3h.48v.44h-.48V4.63c0,.22.06.28.28.28l.2,0V5.4a2.25,2.25,0,0,1-.38,0c-.4,0-.76-.1-.76-.57V3.44h-.4V3h.4V2.28ZM25.16,3V5.4h-.63V5.07a.91.91,0,0,1-.75.39c-.7,0-.87-.39-.87-1V3h.66V4.35c0,.4.11.59.42.59s.51-.2.51-.68V3ZM21,5c.43,0,.57-.37.57-.76s-.15-.78-.58-.78-.57.39-.57.78S20.55,5,21,5M19.76,6.24V3h.63v.3a.85.85,0,0,1,.73-.37c.75,0,1.09.61,1.09,1.29a1.11,1.11,0,0,1-1.06,1.24.86.86,0,0,1-.72-.36V6.24ZM19,2.63h-.66V2.08H19ZM18.29,3H19V5.4h-.66Zm-2.93-.3V4.79H16c.42,0,.82-.26.82-1S16.6,2.7,15.88,2.7Zm-.73,2.7V2.08h1.43a1.45,1.45,0,0,1,1.5,1.64,1.47,1.47,0,0,1-1.5,1.68Z"/><path class="cls-1" d="M3.13,7.21l2.94,2.94L9,7.21,6.07,4.28Zm5-.42.42.42-.42.43H6.49V9.26l-.42.42-.42-.42V7.64H4l-.42-.43L4,6.79H5.65V5.17l.42-.42.42.42V6.79ZM6.07,0a6.07,6.07,0,1,0,6.07,6.07A6.07,6.07,0,0,0,6.07,0M8.79,1.45A.25.25,0,0,1,9,1.7.26.26,0,0,1,8.79,2a.26.26,0,0,1-.26-.26.26.26,0,0,1,.26-.25M8.45,2a.26.26,0,0,1,0,.51.26.26,0,1,1,0-.51M3.61,2.8H8.53v.34H3.61Zm4.91.77H3.61V3.4H8.52ZM8,2.29a.25.25,0,0,1-.25.26.26.26,0,1,1,0-.51A.25.25,0,0,1,8,2.29m-.59-.84a.25.25,0,0,1,.25.25.25.25,0,1,1-.5,0,.25.25,0,0,1,.25-.25M7.09,2a.26.26,0,1,1,0,.51.26.26,0,0,1,0-.51m-.42.25a.26.26,0,0,1-.26.26.26.26,0,0,1,0-.51.26.26,0,0,1,.26.25m-.6-.84a.26.26,0,0,1,.26.25A.26.26,0,0,1,6.07,2a.26.26,0,0,1-.25-.26.25.25,0,0,1,.25-.25M5.73,2a.26.26,0,1,1,0,.51.26.26,0,0,1,0-.51m-.42.25a.26.26,0,0,1-.26.26.26.26,0,0,1,0-.51.26.26,0,0,1,.26.25m-.6-.84A.25.25,0,0,1,5,1.7a.26.26,0,1,1-.51,0,.25.25,0,0,1,.25-.25M4.38,2a.26.26,0,0,1,0,.51.26.26,0,1,1,0-.51M4,2.29a.25.25,0,0,1-.25.26A.26.26,0,1,1,3.7,2,.25.25,0,0,1,4,2.29m-.59-.84a.25.25,0,0,1,.25.25A.26.26,0,0,1,3.36,2,.26.26,0,0,1,3.1,1.7a.26.26,0,0,1,.26-.25M9,7.64v3.05H8.19V8.4L7.6,9v1.69H6.84V9.76l-.77.76-.76-.76v.93H4.54V9L4,8.4v2.29H3.18v-3l-.42-.43.42-.42V3.91H4V6l.59-.6V3.91h.77v.76l.76-.76.77.76V3.91H7.6V5.43l.59.6V3.91H9V6.79l.42.42Z"/></g></g></svg>