<svg xmlns="http://www.w3.org/2000/svg" width="370.08" height="56.71" viewBox="0 0 370.08 56.71"><defs><style>.a{fill:#51402e;}</style></defs><polygon class="a" points="194.68 48.6 194.68 13.78 195.89 13.78 195.89 48.6 194.68 48.6 194.68 48.6"/><path class="a" d="M168.3,40.61h-3.08c.17-2.89,2.75-3.75,5.27-3.75,2.24,0,4.92.5,4.92,3.19v5.83a5.79,5.79,0,0,0,.4,2.5h-3.13a5,5,0,0,1-.22-1.09,5.12,5.12,0,0,1-3.77,1.39c-2.13,0-3.82-1.06-3.82-3.36,0-2.54,1.91-3.14,3.82-3.41s3.64-.21,3.64-1.47-.91-1.52-2-1.52S168.41,39.39,168.3,40.61Zm4,3.43V42.89a6.17,6.17,0,0,1-2.55.65c-1,.2-1.83.52-1.83,1.65s.89,1.43,1.89,1.43A2.28,2.28,0,0,0,172.33,44Zm-20.27,4.34V37.16H155v1.57a4.21,4.21,0,0,1,3.49-1.87c3.28,0,4.1,1.84,4.1,4.62v6.9h-3.07V42c0-1.84-.55-2.75-2-2.75-1.67,0-2.39.93-2.39,3.21v5.88Zm-11.16-5.6c0,1.78.63,3.58,2.71,3.58s2.74-1.8,2.74-3.58-.64-3.6-2.74-3.6S140.9,41,140.9,42.78Zm-3.08,0c0-3.58,2.28-5.92,5.79-5.92s5.82,2.34,5.82,5.92a5.51,5.51,0,0,1-5.82,5.9C140.1,48.68,137.82,46.34,137.82,42.78Zm-5.46,5.6V32.89h3.08V48.38Zm-10.65-6.81h5c-.28-1.56-1-2.39-2.45-2.39A2.43,2.43,0,0,0,121.71,41.57Zm8.09,2h-8.09c.09,2,1.05,2.84,2.76,2.84a2.53,2.53,0,0,0,2.43-1.46h2.71a5,5,0,0,1-5.25,3.78c-3.53,0-5.73-2.43-5.73-5.9a5.62,5.62,0,0,1,5.73-5.92C128.17,36.86,130,40.07,129.8,43.52Zm-13.29-2.41h-3a2.11,2.11,0,0,0-2.28-1.93c-2,0-2.62,2-2.62,3.64s.63,3.54,2.56,3.54a2.37,2.37,0,0,0,2.45-2.28h3a5,5,0,0,1-5.4,4.6,5.44,5.44,0,0,1-5.66-5.75c0-3.49,2.08-6.07,5.72-6.07C113.89,36.86,116.32,38.25,116.51,41.11ZM97,48.38V37.16H100v2.08a4.07,4.07,0,0,1,3.62-2.38,2.19,2.19,0,0,1,.67.11v2.86a6.13,6.13,0,0,0-1.11-.11c-2.25,0-3,1.63-3,3.6v5.06ZM86.89,40.61H83.81c.17-2.89,2.76-3.75,5.27-3.75,2.24,0,4.93.5,4.93,3.19v5.83a5.82,5.82,0,0,0,.39,2.5H91.28a4.49,4.49,0,0,1-.22-1.09,5.15,5.15,0,0,1-3.77,1.39c-2.13,0-3.83-1.06-3.83-3.36,0-2.54,1.92-3.14,3.83-3.41s3.64-.21,3.64-1.47-.91-1.52-2-1.52S87,39.39,86.89,40.61Zm4,3.43V42.89a6.18,6.18,0,0,1-2.56.65c-1,.2-1.82.52-1.82,1.65s.89,1.43,1.89,1.43A2.29,2.29,0,0,0,90.93,44Zm-19.18-8.5v3.62h3.44c1.19,0,2.08-.54,2.08-1.84,0-1.48-1.12-1.78-2.34-1.78ZM68.34,48.38V32.89h7.29c3,0,4.94,1,4.94,3.84A3.4,3.4,0,0,1,78.47,40a3.78,3.78,0,0,1,2.84,3.92c0,3.15-2.67,4.5-5.46,4.5Zm3.41-6.9v4.25h3.64c1.34,0,2.51-.43,2.51-2s-1-2.21-2.44-2.21Zm95.64-21.85c0,1.77.63,3.57,2.71,3.57s2.73-1.8,2.73-3.57S172.2,16,170.1,16,167.39,17.82,167.39,19.63Zm-3.08,0c0-3.59,2.27-5.93,5.79-5.93s5.81,2.34,5.81,5.93a5.5,5.5,0,0,1-5.81,5.9C166.58,25.53,164.31,23.18,164.31,19.63ZM174,9.54l-3.34,3.08h-2.15l2.08-3.08Zm-13,.19v2.54H157.9V9.73ZM157.9,25.22V14H161V25.22ZM154.59,18h-3A2.11,2.11,0,0,0,149.29,16c-2,0-2.63,2-2.63,3.65s.64,3.53,2.57,3.53a2.37,2.37,0,0,0,2.45-2.28h3a5,5,0,0,1-5.4,4.61,5.45,5.45,0,0,1-5.66-5.75c0-3.49,2.08-6.08,5.72-6.08C152,13.7,154.39,15.09,154.59,18Zm-21.36-.51h-3.07c.17-2.87,2.75-3.75,5.27-3.75,2.22,0,4.92.5,4.92,3.19v5.84a5.77,5.77,0,0,0,.39,2.49h-3.12a4,4,0,0,1-.22-1.08,5.19,5.19,0,0,1-3.77,1.39c-2.14,0-3.83-1.07-3.83-3.37,0-2.53,1.91-3.14,3.83-3.4s3.64-.22,3.64-1.48-.91-1.52-2-1.52S133.34,16.24,133.23,17.45Zm4,3.44V19.73a6.17,6.17,0,0,1-2.56.66c-1,.19-1.83.51-1.83,1.64s.9,1.43,1.89,1.43A2.28,2.28,0,0,0,137.27,20.89ZM125,10.65V14h2.25v2.06H125v5.55c0,1,.26,1.3,1.3,1.3a4.31,4.31,0,0,0,.95-.09v2.41a11.17,11.17,0,0,1-1.79.11c-1.89,0-3.54-.44-3.54-2.67V16.07H120V14h1.87V10.65ZM117.51,14V25.22h-2.92V23.66a4.22,4.22,0,0,1-3.49,1.87c-3.28,0-4.11-1.85-4.11-4.63V14h3.08v6.33c0,1.84.55,2.75,2,2.75,1.67,0,2.38-.93,2.38-3.21V14ZM98,23.2c2,0,2.66-1.73,2.66-3.56S99.94,16,98,16s-2.67,1.8-2.67,3.62S96,23.2,98,23.2Zm-5.67,6V14h2.93v1.43a3.86,3.86,0,0,1,3.38-1.74c3.52,0,5.1,2.84,5.1,6,0,3-1.65,5.8-4.92,5.8a4,4,0,0,1-3.36-1.69l0,5.33ZM88.53,9.73v2.54H85.45V9.73ZM85.45,25.22V14h3.08V25.22ZM71.73,12.6v9.76h3c2,0,3.86-1.22,3.86-4.65,0-3.12-1.08-5.11-4.46-5.11ZM68.32,25.22V9.73H75c4,0,7,2.52,7,7.66,0,4.49-2.3,7.83-7,7.83Z"/><path class="a" d="M28.35,22.59,26.5,24.44V31.5h-7l-1.85,1.84,1.85,1.85h7v7.05l1.85,1.85,1.85-1.85V35.19h7l1.85-1.85L37.23,31.5h-7V24.44ZM28.36,0A28.36,28.36,0,1,0,56.71,28.36,28.35,28.35,0,0,0,28.36,0ZM38.71,10.8a1.11,1.11,0,1,1-1.11,1.11A1.11,1.11,0,0,1,38.71,10.8ZM17.64,17.45V16.7H39v.75ZM35,18.92v6.63l-3.33-3.33v-3.3Zm-10,0v3.31l-3.33,3.33V18.92Zm-5.91,0v9.23l-3.33,3.32V18.92Zm-1.47-3.33V14.12H39.07v1.47Zm20,3.33h3.33V31.47L37.6,28.14Zm-.74-7a1.11,1.11,0,1,1-1.12-1.11A1.11,1.11,0,0,1,36.86,11.91Zm-2.58-3.7a1.12,1.12,0,1,1-1.11,1.11A1.11,1.11,0,0,1,34.28,8.21ZM32.8,10.8a1.11,1.11,0,1,1-1.11,1.11A1.1,1.1,0,0,1,32.8,10.8ZM31,11.91a1.12,1.12,0,1,1-1.12-1.11A1.11,1.11,0,0,1,31,11.91Zm-2.6-3.7a1.12,1.12,0,1,1-1.11,1.11A1.11,1.11,0,0,1,28.36,8.21ZM26.87,10.8a1.11,1.11,0,1,1-1.11,1.11A1.11,1.11,0,0,1,26.87,10.8ZM25,11.91a1.11,1.11,0,1,1-1.11-1.11A1.11,1.11,0,0,1,25,11.91Zm-2.58-3.7a1.12,1.12,0,1,1-1.11,1.11A1.11,1.11,0,0,1,22.44,8.21ZM21,10.8a1.11,1.11,0,1,1-1.1,1.11A1.1,1.1,0,0,1,21,10.8Zm-1.84,1.11A1.12,1.12,0,1,1,18,10.8,1.11,1.11,0,0,1,19.12,11.91Zm-2.6-3.7a1.12,1.12,0,1,1-1.11,1.11A1.11,1.11,0,0,1,16.52,8.21ZM19.11,48.5H15.78V35.21l3.33,3.32Zm5.91,0H21.69V41.12L25,44.45Zm10,0H31.68v-4L35,41.13Zm5.92,0H37.6v-10l3.33-3.33ZM28.36,46.15,15.55,33.35,28.36,20.54l12.8,12.81ZM40.19,10.44A1.12,1.12,0,1,1,41.3,9.32,1.12,1.12,0,0,1,40.19,10.44Z"/><path class="a" d="M216.27,22H219V34.49h-2.74Z"/><path class="a" d="M221.77,25.46h2.36v1.26h.05a3.23,3.23,0,0,1,2.76-1.5c2.64,0,3.3,1.48,3.3,3.72v5.55h-2.48v-5.1c0-1.48-.43-2.22-1.59-2.22-1.34,0-1.92.75-1.92,2.59v4.73h-2.48Z"/><path class="a" d="M234.66,31.55c0,1.09.93,1.52,1.9,1.52.72,0,1.63-.28,1.63-1.15s-1-1-2.81-1.4c-1.43-.31-2.87-.82-2.87-2.4,0-2.31,2-2.9,3.93-2.9s3.79.66,4,2.88h-2.35c-.07-1-.81-1.22-1.7-1.22-.56,0-1.38.1-1.38.83,0,.89,1.4,1,2.81,1.35s2.87.85,2.87,2.53c0,2.37-2.06,3.14-4.12,3.14s-4.14-.78-4.25-3.18Z"/><path class="a" d="M245.87,25.46h1.82v1.66h-1.82v4.47c0,.84.21,1.05,1,1.05a4,4,0,0,0,.77-.07V34.5a9.48,9.48,0,0,1-1.45.09c-1.52,0-2.85-.35-2.85-2.15V27.12h-1.5V25.46h1.5v-2.7h2.48Z"/><path class="a" d="M252,24.07h-2.48V22H252Zm-2.48,1.39H252v9h-2.48Z"/><path class="a" d="M257.75,25.46h1.81v1.66h-1.81v4.47c0,.84.21,1.05,1,1.05a3.94,3.94,0,0,0,.77-.07V34.5a9.48,9.48,0,0,1-1.45.09c-1.52,0-2.84-.35-2.84-2.15V27.12h-1.5V25.46h1.5v-2.7h2.48Z"/><path class="a" d="M269.83,34.49h-2.36V33.23h-.05a3.23,3.23,0,0,1-2.76,1.5c-2.63,0-3.3-1.48-3.3-3.72V25.46h2.48v5.1c0,1.48.44,2.22,1.59,2.22,1.34,0,1.92-.75,1.92-2.59V25.46h2.48Z"/><path class="a" d="M275.47,25.46h1.82v1.66h-1.82v4.47c0,.84.21,1.05,1,1.05a4,4,0,0,0,.77-.07V34.5a9.48,9.48,0,0,1-1.45.09c-1.52,0-2.85-.35-2.85-2.15V27.12h-1.5V25.46H273v-2.7h2.48Z"/><path class="a" d="M291,33.33h0a3,3,0,0,1-2.74,1.4c-2.72,0-4.05-2.34-4.05-4.83s1.34-4.68,4-4.68a3.11,3.11,0,0,1,2.67,1.34h0V22h2.48V34.49H291Zm-2.16-6.24c-1.62,0-2.18,1.39-2.18,2.88s.64,2.89,2.18,2.89S291,31.43,291,30,290.44,27.09,288.83,27.09Z"/><path class="a" d="M297.88,30.58c.07,1.57.83,2.28,2.21,2.28a2,2,0,0,0,2-1.17h2.18a4.06,4.06,0,0,1-4.22,3A4.4,4.4,0,0,1,295.4,30,4.53,4.53,0,0,1,300,25.22c3.07,0,4.55,2.58,4.38,5.36Zm4-1.57c-.23-1.26-.77-1.92-2-1.92A2,2,0,0,0,297.88,29Z"/><path class="a" d="M306.54,22H309V34.49h-2.48Z"/><path class="a" d="M320.07,24.33h-3.73V22h10.21v2.31h-3.74V34.49h-2.74Z"/><path class="a" d="M328.44,30.58c.07,1.57.83,2.28,2.21,2.28a2,2,0,0,0,2-1.17h2.18a4.06,4.06,0,0,1-4.22,3A4.4,4.4,0,0,1,326,30a4.53,4.53,0,0,1,4.61-4.76c3.07,0,4.55,2.58,4.38,5.36Zm4-1.57c-.23-1.26-.77-1.92-2-1.92A1.94,1.94,0,0,0,328.44,29Z"/><path class="a" d="M336.92,28.24c.14-2.32,2.22-3,4.25-3,1.79,0,4,.4,4,2.56v4.7a4.77,4.77,0,0,0,.31,2h-2.51a3.72,3.72,0,0,1-.18-.88,4.08,4.08,0,0,1-3,1.12c-1.71,0-3.08-.85-3.08-2.7,0-2.05,1.54-2.53,3.08-2.74s2.93-.18,2.93-1.19-.73-1.22-1.61-1.22-1.55.38-1.64,1.36Zm5.73,1.83a4.74,4.74,0,0,1-2.06.52c-.77.16-1.47.42-1.47,1.33s.72,1.15,1.52,1.15a1.84,1.84,0,0,0,2-2.07Z"/><path class="a" d="M350.81,25.46h1.81v1.66h-1.81v4.47c0,.84.2,1.05,1,1.05a4,4,0,0,0,.77-.07V34.5a9.48,9.48,0,0,1-1.45.09c-1.52,0-2.84-.35-2.84-2.15V27.12h-1.5V25.46h1.5v-2.7h2.48Z"/><path class="a" d="M354.42,25.46h2.36v1.68h0a3.19,3.19,0,0,1,2.88-1.92,1.57,1.57,0,0,1,.54.09v2.3a4.61,4.61,0,0,0-.89-.09c-1.81,0-2.44,1.31-2.44,2.9v4.07h-2.48Z"/><path class="a" d="M363.55,30.58c.07,1.57.84,2.28,2.22,2.28a2,2,0,0,0,2-1.17h2.18a4.06,4.06,0,0,1-4.23,3A4.41,4.41,0,0,1,361.07,30a4.53,4.53,0,0,1,4.61-4.76c3.07,0,4.56,2.58,4.38,5.36Zm4-1.57c-.23-1.26-.77-1.92-2-1.92A2,2,0,0,0,363.55,29Z"/></svg>