<svg xmlns="http://www.w3.org/2000/svg" viewBox="0 0 79.23 13.15"><defs><style>.cls-1{fill:#51402D;}</style></defs><g id="Layer_2" data-name="Layer 2"><g id="Layer_2-2" data-name="Layer 2"><path class="cls-1" d="M6,3.64a.36.36,0,0,1,.31-.22h.31c.93,0,1.16,0,1.35,0a.17.17,0,0,1,.15.17A.17.17,0,0,1,8,3.72H7V9.52H8a.17.17,0,0,1,.15.18A.16.16,0,0,1,8,9.86c-.19,0-.42,0-1.35,0H6.29c-1,0-1.16,0-1.36,0a.16.16,0,0,1-.15-.17.17.17,0,0,1,.15-.18H6V4.79l-2,5c0,.1-.08.14-.22.14s-.19,0-.23-.14l-2-5.12V9.52h1a.17.17,0,0,1,.15.18.16.16,0,0,1-.15.17c-.19,0-.27,0-1.15,0H1.29c-.86,0-.95,0-1.14,0A.15.15,0,0,1,0,9.69a.16.16,0,0,1,.15-.18h1V3.71h-1A.16.16,0,0,1,0,3.54a.16.16,0,0,1,.15-.17,11.07,11.07,0,0,0,1.13,0l.51,0a.42.42,0,0,1,.46.33L4.07,8.51Z"/><path class="cls-1" d="M10.14,4.58a.6.6,0,0,1-.6.61.6.6,0,0,1-.6-.61c0-.69,1-1.29,1.84-1.29a1.74,1.74,0,0,1,2,2V9.13c0,.37.09.47.25.47s.31-.29.44-.4a.12.12,0,0,1,.1-.06.2.2,0,0,1,.22.19.35.35,0,0,1-.1.22,1.32,1.32,0,0,1-1,.39.93.93,0,0,1-.94-.84A2.79,2.79,0,0,1,9.85,10,1.33,1.33,0,0,1,8.46,8.58c0-1.65,1.91-2.14,3.23-2.14V4.71c0-.7-.31-1-.91-1A1.06,1.06,0,0,0,9.83,4a.62.62,0,0,1,.31.54m1.55,2.18c-1,0-2.14.41-2.14,1.64,0,.74.39,1,.77,1s.7,0,1.37-.72Z"/><path class="cls-1" d="M15,6.61c0,2,.62,3,1.74,3a1.71,1.71,0,0,0,1.72-1.39c0-.09.08-.21.18-.21a.17.17,0,0,1,.19.17,1.18,1.18,0,0,1-.06.27A2.23,2.23,0,0,1,16.57,10c-1.48,0-2.71-1.24-2.71-3.38s1.26-3.37,2.64-3.37A2.3,2.3,0,0,1,18.83,6H15c0,.2,0,.42,0,.65m2.74-1.07A1.69,1.69,0,0,0,17.87,5a1.22,1.22,0,0,0-1.23-1.33c-.76,0-1.37.41-1.56,1.92Z"/><rect class="cls-1" x="21.36" width="0.35" height="13.15" rx="0.1"/><path class="cls-1" d="M24.47,4.54A1.4,1.4,0,0,1,25.72,3a.94.94,0,0,1,.74.32.37.37,0,0,0,.09-.22s0-.08.07-.08.07,0,.07.08V4a.06.06,0,0,1-.07.07A.06.06,0,0,1,26.55,4a.82.82,0,0,0-.79-.88c-.53,0-.86.34-.86,1.38s.33,1.39.86,1.39a.83.83,0,0,0,.79-.88A.06.06,0,0,1,26.62,5a.06.06,0,0,1,.07.07V6s0,.08-.07.08-.07,0-.07-.08a.33.33,0,0,0-.09-.22.91.91,0,0,1-.74.32,1.41,1.41,0,0,1-1.25-1.57"/><path class="cls-1" d="M27.47,5.12c0,.56.2.83.53.83a.55.55,0,0,0,.56-.39s0-.07.07-.07a.08.08,0,0,1,.08.07.37.37,0,0,1,0,.09.77.77,0,0,1-.74.46.92.92,0,0,1-.85-1,.91.91,0,0,1,.85-1,.71.71,0,0,1,.74.81H27.48a.91.91,0,0,0,0,.17m.85-.33a.76.76,0,0,0,0-.16A.33.33,0,0,0,28,4.29c-.22,0-.42.09-.49.5Z"/><path class="cls-1" d="M30.45,4.14c.41,0,.57.29.57.69V5.89h.3a.08.08,0,0,1,.07.09.07.07,0,0,1-.07.07,3.23,3.23,0,0,0-.45,0h0a3.05,3.05,0,0,0-.45,0A.06.06,0,0,1,30.33,6c0-.06,0-.09.07-.09h.29V4.67c0-.25-.07-.35-.27-.35s-.64.4-.64.87v.7h.29s.07,0,.07.09a.06.06,0,0,1-.07.07,3.05,3.05,0,0,0-.45,0h0a3.23,3.23,0,0,0-.45,0A.06.06,0,0,1,29.08,6c0-.06,0-.09.07-.09h.3V4.36h-.3a.08.08,0,0,1,0-.16h.3l.26,0a.08.08,0,0,1,.07.08v.38a.8.8,0,0,1,.67-.52"/><path class="cls-1" d="M32.61,4.21s.06,0,.06.08,0,.08-.06.08h-.46V5.75c0,.13.05.19.14.19a.19.19,0,0,0,.19-.2c0-.06,0-.09.08-.09a.07.07,0,0,1,.07.08.38.38,0,0,1-.42.34.35.35,0,0,1-.38-.4V4.36h-.34a.08.08,0,0,1,0-.16c.32,0,.42,0,.48-.35s.06-.29.12-.29.06.05.06.13v.52h.46"/><path class="cls-1" d="M34.15,4.14c.22,0,.35.12.35.27a.23.23,0,0,1-.21.24.21.21,0,0,1-.21-.21.2.2,0,0,1,.05-.14c-.2-.06-.5.17-.5.79v.8h.3A.08.08,0,0,1,34,6a.07.07,0,0,1-.07.07,3.23,3.23,0,0,0-.45,0h0A3.05,3.05,0,0,0,33,6,.06.06,0,0,1,32.94,6c0-.06,0-.09.07-.09h.29V4.36H33a.08.08,0,0,1,0-.16h.29l.26,0a.07.07,0,0,1,.07.08v.23a.55.55,0,0,1,.52-.37"/><path class="cls-1" d="M35.11,5.12c0,.56.19.83.53.83a.53.53,0,0,0,.55-.39s0-.07.08-.07a.07.07,0,0,1,.07.07.37.37,0,0,1,0,.09.77.77,0,0,1-.74.46.92.92,0,0,1-.84-1,.91.91,0,0,1,.85-1,.7.7,0,0,1,.73.81H35.11v.17M36,4.79a.41.41,0,0,0,0-.16.32.32,0,0,0-.35-.34c-.22,0-.43.09-.5.5Z"/><path class="cls-1" d="M39.56,6.05a1.79,1.79,0,0,0-.29,0l-.26,0A.08.08,0,0,1,38.94,6v-.2a.64.64,0,0,1-.55.34c-.46,0-.78-.4-.78-1s.32-1,.78-1a.65.65,0,0,1,.55.33V3.2a2.19,2.19,0,0,0-.3,0,.09.09,0,0,1-.07-.09.08.08,0,0,1,.07-.08h.3l.26,0a.08.08,0,0,1,.07.08V5.9a1.79,1.79,0,0,0,.29,0,.07.07,0,0,1,.07.08.08.08,0,0,1-.07.09M38.4,4.29c-.28,0-.42.22-.42.83s.14.83.42.83.54-.29.54-.83-.23-.83-.54-.83"/><path class="cls-1" d="M40.31,5.12c0,.56.2.83.54.83a.54.54,0,0,0,.55-.39s0-.07.08-.07a.07.07,0,0,1,.07.07.37.37,0,0,1,0,.09.77.77,0,0,1-.74.46.93.93,0,0,1-.85-1,.92.92,0,0,1,.86-1,.7.7,0,0,1,.73.81H40.32a.91.91,0,0,0,0,.17m.85-.33a.41.41,0,0,0,0-.16.32.32,0,0,0-.35-.34c-.22,0-.43.09-.5.5Z"/><path class="cls-1" d="M45.43,4.54A1.36,1.36,0,0,1,44.18,6l-.81,0a2.42,2.42,0,0,0-.47,0A.08.08,0,0,1,42.83,6a.09.09,0,0,1,.07-.09h.31V3.2H42.9a.09.09,0,0,1-.07-.09A.09.09,0,0,1,42.9,3a2.42,2.42,0,0,0,.47,0l.81,0a1.36,1.36,0,0,1,1.25,1.49m-.43,0c0-1-.29-1.31-.82-1.31h-.6V5.85h.6c.53,0,.82-.32.82-1.32"/><path class="cls-1" d="M46.75,6.11a.91.91,0,0,1-.88-1,.88.88,0,1,1,1.75,0,.92.92,0,0,1-.87,1m0-1.82c-.36,0-.51.22-.51.83s.15.84.51.84.5-.22.5-.84-.16-.83-.5-.83"/><path class="cls-1" d="M49,4.29c-.34,0-.52.22-.52.83S48.65,6,49,6a.5.5,0,0,0,.49-.39s0-.07.07-.07a.07.07,0,0,1,.07.07.37.37,0,0,1,0,.09.67.67,0,0,1-.67.46.88.88,0,0,1-.84-1,.87.87,0,0,1,.84-1,.61.61,0,0,1,.67.52.21.21,0,1,1-.42,0,.2.2,0,0,1,.17-.2.39.39,0,0,0-.36-.2"/><path class="cls-1" d="M50.65,6.1c-.4,0-.54-.29-.54-.69V4.35a2,2,0,0,0-.3,0s-.06,0-.06-.09,0-.07.06-.07h.3l.26,0a.08.08,0,0,1,.07.09V5.57c0,.25.07.35.25.35s.6-.42.6-.89V4.35a2.19,2.19,0,0,0-.3,0,.08.08,0,0,1-.07-.09A.06.06,0,0,1,51,4.21h.3l.26,0a.08.08,0,0,1,.07.09v1.5c0,.13,0,.17.08.17s.07-.06.12-.1a.07.07,0,0,1,.1,0s0,.09,0,.12a.43.43,0,0,1-.31.1.31.31,0,0,1-.3-.35V5.58a.78.78,0,0,1-.64.52"/><path class="cls-1" d="M54.28,5.88a.08.08,0,0,1,.07.09.06.06,0,0,1-.07.07,2.31,2.31,0,0,0-.42,0h0a2.62,2.62,0,0,0-.42,0A.07.07,0,0,1,53.35,6a.09.09,0,0,1,.07-.09h.27V4.67c0-.25-.07-.35-.26-.35s-.59.42-.59.89v.68h.27a.09.09,0,0,1,.07.09.07.07,0,0,1-.07.07,2.46,2.46,0,0,0-.42,0h0a3.05,3.05,0,0,0-.45,0A.06.06,0,0,1,52.15,6a.08.08,0,0,1,.07-.09h.29V4.36h-.29a.08.08,0,0,1,0-.16h.29l.26,0a.07.07,0,0,1,.07.08v.38a.78.78,0,0,1,.64-.52c.34,0,.5.22.53.54a.8.8,0,0,1,.64-.54c.4,0,.55.29.55.69V5.89h.29a.08.08,0,0,1,.07.09.06.06,0,0,1-.07.07A3.05,3.05,0,0,0,55,6h0a2.46,2.46,0,0,0-.42,0A.07.07,0,0,1,54.53,6a.09.09,0,0,1,.07-.09h.27V4.67c0-.25-.08-.35-.26-.35s-.59.42-.59.89v.68h.26"/><path class="cls-1" d="M56.17,5.12c0,.56.2.83.53.83a.55.55,0,0,0,.56-.39s0-.07.07-.07a.07.07,0,0,1,.07.07s0,.06,0,.09a.79.79,0,0,1-.75.46.92.92,0,0,1-.84-1,.91.91,0,0,1,.85-1,.71.71,0,0,1,.74.81H56.17v.17M57,4.79a.41.41,0,0,0,0-.16.32.32,0,0,0-.35-.34c-.22,0-.43.09-.5.5Z"/><path class="cls-1" d="M59.14,4.14c.42,0,.58.29.58.69V5.89H60s.07,0,.07.09A.06.06,0,0,1,60,6a3.05,3.05,0,0,0-.45,0h0a3.42,3.42,0,0,0-.45,0A.07.07,0,0,1,59,6a.08.08,0,0,1,.07-.09h.3V4.67c0-.25-.07-.35-.28-.35s-.64.4-.64.87v.7h.3a.08.08,0,0,1,.07.09.07.07,0,0,1-.07.07,3.23,3.23,0,0,0-.45,0h0a3.05,3.05,0,0,0-.45,0A.06.06,0,0,1,57.78,6c0-.06,0-.09.07-.09h.29V4.36h-.29a.08.08,0,0,1,0-.16h.29l.26,0a.07.07,0,0,1,.07.08v.38a.81.81,0,0,1,.67-.52"/><path class="cls-1" d="M61.3,4.21a.08.08,0,0,1,0,.16h-.45V5.75c0,.13,0,.19.14.19a.21.21,0,0,0,.19-.2c0-.06,0-.09.08-.09s.06,0,.06.08a.37.37,0,0,1-.42.34.36.36,0,0,1-.38-.4V4.36h-.34s-.06,0-.06-.08,0-.08.06-.08c.33,0,.43,0,.48-.35s.07-.29.13-.29.06.05.06.13v.52h.45"/><path class="cls-1" d="M62.17,4.55a.19.19,0,0,1-.19.19.18.18,0,0,1-.19-.19c0-.22.31-.41.59-.41a.56.56,0,0,1,.63.63v1c0,.13,0,.17.09.17s.06-.06.11-.1.07,0,.11,0,0,.09,0,.12a.49.49,0,0,1-.32.1.3.3,0,0,1-.29-.27.88.88,0,0,1-.61.28.42.42,0,0,1-.45-.42c0-.45.52-.63,1-.63V4.59c0-.22-.11-.31-.3-.31a.37.37,0,0,0-.3.11.19.19,0,0,1,.09.16m.51.63c-.5,0-.7.15-.7.42a.27.27,0,0,0,.25.29.71.71,0,0,0,.45-.22Z"/><path class="cls-1" d="M64.51,4.29c-.35,0-.53.22-.53.83s.22.83.53.83A.5.5,0,0,0,65,5.56s0-.07.07-.07a.07.07,0,0,1,.07.07.37.37,0,0,1,0,.09.68.68,0,0,1-.67.46.88.88,0,0,1-.84-1,.87.87,0,0,1,.84-1,.61.61,0,0,1,.67.52.23.23,0,0,1-.22.24.21.21,0,0,1-.2-.21.2.2,0,0,1,.17-.2.39.39,0,0,0-.36-.2"/><path class="cls-1" d="M66.45,5.88s.06,0,.06.09,0,.08-.06.08A2.36,2.36,0,0,0,66,6h0a2.17,2.17,0,0,0-.45,0A.08.08,0,0,1,65.45,6a.09.09,0,0,1,.07-.09h.3V4.36h-.3a.08.08,0,0,1,0-.16h.3l.26,0a.08.08,0,0,1,.07.08V5.89h.3M66,3.66a.2.2,0,1,1,0-.4.2.2,0,1,1,0,.4"/><path class="cls-1" d="M67.7,6.11a.92.92,0,0,1-.88-1,.89.89,0,1,1,1.76,0,.92.92,0,0,1-.88,1m0-1.82c-.35,0-.51.22-.51.83s.16.84.51.84.5-.22.5-.84-.15-.83-.5-.83m.4-.76a4.82,4.82,0,0,0-.64.4s-.12,0-.06-.07a4,4,0,0,0,.5-.56.15.15,0,0,1,.22,0,.15.15,0,0,1,0,.21"/><path class="cls-1" d="M25.42,9.74a.09.09,0,0,1,.07.09.08.08,0,0,1-.07.08,2.17,2.17,0,0,0-.45,0h0a2.17,2.17,0,0,0-.45,0,.07.07,0,0,1-.07-.08.08.08,0,0,1,.07-.09h.3V8.22h-.3a.08.08,0,0,1,0-.16h.3l.25,0a.07.07,0,0,1,.07.08V9.75h.3M25,7.53a.22.22,0,0,1-.21-.21.21.21,0,0,1,.21-.2.2.2,0,0,1,.2.2.21.21,0,0,1-.2.21"/><path class="cls-1" d="M29.84,9.91a2.42,2.42,0,0,0-.47,0h-.06a2.56,2.56,0,0,0-.47,0,.07.07,0,0,1-.07-.08.08.08,0,0,1,.07-.09h.32V7.54l-.91,2.39s0,.05-.08.05-.06,0-.08-.05l-.88-2.4V9.75h.32a.09.09,0,0,1,.07.09.08.08,0,0,1-.07.08c-.05,0-.09,0-.4,0a3.55,3.55,0,0,0-.4,0,.08.08,0,0,1-.08-.08.09.09,0,0,1,.08-.09H27V7.06h-.31A.09.09,0,0,1,26.65,7a.09.09,0,0,1,.08-.08,3.55,3.55,0,0,0,.4,0h.2c.1,0,.08.06.1.13l.84,2.33.89-2.33c0-.06,0-.13.09-.13h.12a2.42,2.42,0,0,0,.47,0,.09.09,0,0,1,.07.08.09.09,0,0,1-.07.09h-.32V9.75h.32a.09.09,0,0,1,.07.09.08.08,0,0,1-.07.08"/><path class="cls-1" d="M31.06,10c-.4,0-.54-.29-.54-.68V8.21a2,2,0,0,0-.3,0s-.06,0-.06-.08,0-.08.06-.08h.3l.26,0a.08.08,0,0,1,.07.09V9.43c0,.25.07.36.26.36s.59-.43.59-.9V8.21a2.19,2.19,0,0,0-.3,0,.08.08,0,0,1,0-.16h.3l.26,0a.08.08,0,0,1,.07.09v1.5c0,.13,0,.17.09.17s.06-.06.11-.1a.07.07,0,0,1,.1,0s0,.09,0,.12a.43.43,0,0,1-.31.1.31.31,0,0,1-.3-.35V9.44a.78.78,0,0,1-.64.52"/><path class="cls-1" d="M33.3,10a.67.67,0,0,1-.72-.5.19.19,0,0,1,.2-.21.18.18,0,0,1,.16.15.18.18,0,0,1-.12.18.61.61,0,0,0,.5.22c.23,0,.46-.12.46-.35s-.21-.25-.39-.3l-.19-.06c-.47-.12-.56-.31-.56-.54A.6.6,0,0,1,33.3,8c.32,0,.62.16.62.38s-.07.22-.19.22a.18.18,0,0,1-.17-.17.17.17,0,0,1,.1-.15.4.4,0,0,0-.34-.14c-.26,0-.44.13-.44.34s.14.22.31.27l.22.06c.39.1.62.26.62.58s-.32.59-.73.59"/><path class="cls-1" d="M34.79,9c0,.56.2.83.53.83a.55.55,0,0,0,.56-.39s0-.07.07-.07a.08.08,0,0,1,.08.07.37.37,0,0,1,0,.09.77.77,0,0,1-.74.46.92.92,0,0,1-.85-1,.92.92,0,0,1,.85-1,.71.71,0,0,1,.74.81H34.79V9m.85-.33a.78.78,0,0,0,0-.16.32.32,0,0,0-.35-.34c-.22,0-.42.09-.49.5Z"/><path class="cls-1" d="M37.14,10c-.39,0-.54-.29-.54-.68V8.21a1.79,1.79,0,0,0-.29,0,.08.08,0,0,1,0-.16h.29l.27,0s.06,0,.06.09V9.43c0,.25.07.36.26.36s.59-.43.59-.9V8.21a1.79,1.79,0,0,0-.29,0,.08.08,0,0,1,0-.16h.29l.26,0a.08.08,0,0,1,.07.09v1.5c0,.13,0,.17.09.17s.06-.06.12-.1.06,0,.1,0,0,.09,0,.12a.43.43,0,0,1-.31.1.31.31,0,0,1-.3-.35V9.44a.78.78,0,0,1-.64.52"/><path class="cls-1" d="M41.51,9.91a2,2,0,0,0-.3,0l-.26,0a.09.09,0,0,1-.07-.09v-.2a.62.62,0,0,1-.54.34c-.46,0-.79-.4-.79-1s.33-1,.79-1a.62.62,0,0,1,.54.34V7.06a1.79,1.79,0,0,0-.29,0A.08.08,0,0,1,40.52,7a.07.07,0,0,1,.07-.08h.29l.26,0a.07.07,0,0,1,.07.08V9.76a2,2,0,0,0,.3,0,.07.07,0,0,1,.07.08.08.08,0,0,1-.07.09M40.34,8.16c-.27,0-.42.21-.42.82s.15.83.42.83.54-.29.54-.83-.23-.82-.54-.82"/><path class="cls-1" d="M42.26,9c0,.56.2.83.53.83a.55.55,0,0,0,.56-.39s0-.07.07-.07a.08.08,0,0,1,.08.07.37.37,0,0,1,0,.09.78.78,0,0,1-.74.46.92.92,0,0,1-.85-1,.92.92,0,0,1,.85-1,.71.71,0,0,1,.74.81H42.26V9m.85-.33a.78.78,0,0,0,0-.16.32.32,0,0,0-.35-.34c-.22,0-.42.09-.49.5Z"/><path class="cls-1" d="M45.62,9.74a.08.08,0,0,1,.07.09.07.07,0,0,1-.07.08,2.17,2.17,0,0,0-.45,0h0a2.17,2.17,0,0,0-.45,0,.08.08,0,0,1-.07-.08.09.09,0,0,1,.07-.09H45V7.06a2,2,0,0,0-.3,0A.09.09,0,0,1,44.63,7a.08.08,0,0,1,.07-.08H45l.25,0a.07.07,0,0,1,.07.08V9.75h.3"/><path class="cls-1" d="M46.37,9c0,.56.2.83.54.83a.54.54,0,0,0,.55-.39s0-.07.08-.07a.07.07,0,0,1,.07.07.37.37,0,0,1,0,.09.77.77,0,0,1-.74.46A.93.93,0,0,1,46,9a.92.92,0,0,1,.86-1,.7.7,0,0,1,.73.81H46.38a.91.91,0,0,0,0,.17m.85-.33a.41.41,0,0,0,0-.16.32.32,0,0,0-.35-.34c-.22,0-.43.09-.5.5Z"/><path class="cls-1" d="M48.71,10a.68.68,0,0,1-.73-.5.19.19,0,0,1,.21-.21.18.18,0,0,1,.16.15.18.18,0,0,1-.12.18.59.59,0,0,0,.5.22c.23,0,.46-.12.46-.35s-.21-.25-.39-.3l-.19-.06c-.47-.12-.56-.31-.56-.54A.6.6,0,0,1,48.71,8c.32,0,.62.16.62.38s-.07.22-.19.22A.18.18,0,0,1,49,8.43a.17.17,0,0,1,.1-.15.4.4,0,0,0-.34-.14c-.26,0-.44.13-.44.34s.14.22.31.27l.22.06c.39.1.62.26.62.58s-.32.59-.73.59"/><path class="cls-1" d="M53.26,9.74s.06,0,.06.09,0,.08-.06.08a2.76,2.76,0,0,0-.48,0h-.05a2.76,2.76,0,0,0-.48,0,.08.08,0,0,1-.07-.08.09.09,0,0,1,.07-.09h.31L52.27,9H51.14l-.3.79h.32a.09.09,0,0,1,.07.09.08.08,0,0,1-.07.08,1.81,1.81,0,0,0-.39,0h0a1.81,1.81,0,0,0-.39,0,.08.08,0,0,1-.07-.08.09.09,0,0,1,.07-.09h.3l1.09-2.86a.07.07,0,0,1,.08-.06c.06,0,.07,0,.08.06L53,9.75h.31M51.72,7.42,51.2,8.79h1Z"/><path class="cls-1" d="M54.53,8c.22,0,.35.12.35.27a.22.22,0,0,1-.21.24.21.21,0,0,1-.21-.21.2.2,0,0,1,0-.14c-.2-.05-.5.18-.5.79v.8h.3a.09.09,0,0,1,.07.09.08.08,0,0,1-.07.08,2.17,2.17,0,0,0-.45,0h0a2.05,2.05,0,0,0-.45,0,.07.07,0,0,1-.07-.08.08.08,0,0,1,.07-.09h.29V8.22h-.29a.08.08,0,0,1,0-.16h.29l.26,0a.07.07,0,0,1,.07.08v.23A.55.55,0,0,1,54.53,8"/><path class="cls-1" d="M56.1,8.07a.08.08,0,0,1,0,.16h-.45V9.61c0,.13,0,.19.14.19A.21.21,0,0,0,56,9.6c0-.06,0-.09.08-.09s.06,0,.06.08a.37.37,0,0,1-.42.34.35.35,0,0,1-.38-.39V8.22H55a.08.08,0,0,1,0-.16c.32,0,.42-.05.47-.35s.07-.29.13-.29.06.05.06.13v.52h.45"/><path class="cls-1" d="M57.16,10a.68.68,0,0,1-.73-.5.19.19,0,0,1,.21-.21.18.18,0,0,1,.16.15.18.18,0,0,1-.12.18.59.59,0,0,0,.5.22c.23,0,.46-.12.46-.35s-.21-.25-.39-.3l-.19-.06c-.47-.12-.56-.31-.56-.54A.6.6,0,0,1,57.16,8c.32,0,.62.16.62.38a.2.2,0,0,1-.19.22.18.18,0,0,1-.17-.17.17.17,0,0,1,.1-.15.4.4,0,0,0-.34-.14c-.26,0-.44.13-.44.34s.14.22.31.27l.22.06c.39.1.62.26.62.58s-.32.59-.73.59"/><path class="cls-1" d="M61.27,9.69v.14a.08.08,0,0,1-.07.08l-.26,0H59.68a2.76,2.76,0,0,0-.48,0,.08.08,0,0,1-.07-.08.09.09,0,0,1,.07-.09h.32V7.06H59.2A.09.09,0,0,1,59.13,7a.09.09,0,0,1,.07-.08,2.76,2.76,0,0,0,.48,0h1.15l.25,0a.07.07,0,0,1,.07.08v.14c0,.19,0,.52,0,.56a.08.08,0,0,1-.16,0c0-.37-.11-.59-.38-.59h-.75V8.26h.45c.15,0,.25-.12.25-.36,0,0,0-.07.06-.07s.06,0,.06.07v.88s0,.07-.06.07a.07.07,0,0,1-.06-.07c0-.24-.1-.36-.25-.36h-.45v1.3h.87c.26,0,.38-.22.38-.59a.07.07,0,0,1,.08-.07.06.06,0,0,1,.07.07s0,.37,0,.56"/><path class="cls-1" d="M62.35,10a.67.67,0,0,1-.72-.5.18.18,0,0,1,.2-.21.18.18,0,0,1,.16.15.18.18,0,0,1-.12.18.59.59,0,0,0,.5.22c.23,0,.46-.12.46-.35s-.21-.25-.39-.3l-.19-.06c-.47-.12-.56-.31-.56-.54A.6.6,0,0,1,62.35,8c.32,0,.62.16.62.38a.2.2,0,0,1-.19.22.18.18,0,0,1-.17-.17.17.17,0,0,1,.1-.15.4.4,0,0,0-.34-.14c-.26,0-.44.13-.44.34s.14.22.31.27l.22.06c.39.1.62.26.62.58s-.32.59-.73.59"/><path class="cls-1" d="M64.36,8.15c-.34,0-.52.22-.52.83s.21.83.53.83a.5.5,0,0,0,.48-.39.09.09,0,0,1,.08-.07.08.08,0,0,1,.07.07.37.37,0,0,1,0,.09.68.68,0,0,1-.67.46.88.88,0,0,1-.84-1,.87.87,0,0,1,.84-1,.6.6,0,0,1,.66.52.22.22,0,0,1-.21.24.2.2,0,0,1-.2-.21.2.2,0,0,1,.16-.2.39.39,0,0,0-.36-.2"/><path class="cls-1" d="M65.73,9c0,.56.2.83.53.83a.55.55,0,0,0,.56-.39s0-.07.07-.07a.07.07,0,0,1,.07.07.31.31,0,0,1,0,.09.79.79,0,0,1-.75.46.92.92,0,0,1-.84-1,.92.92,0,0,1,.85-1,.71.71,0,0,1,.74.81H65.73V9m0-1.8a.15.15,0,0,1,.22,0,3,3,0,0,0,.5.56s0,.12-.07.08a3,3,0,0,0-.63-.4.15.15,0,0,1,0-.22m.82,1.47a.78.78,0,0,0,0-.16.32.32,0,0,0-.35-.34c-.22,0-.42.09-.49.5Z"/><path class="cls-1" d="M68.71,8c.41,0,.57.29.57.69V9.75h.3s.06,0,.06.09,0,.08-.06.08a2.36,2.36,0,0,0-.46,0h0a2.29,2.29,0,0,0-.45,0s-.06,0-.06-.08,0-.09.06-.09H69V8.53c0-.25-.07-.35-.28-.35s-.64.41-.64.87v.7h.3a.09.09,0,0,1,.07.09.08.08,0,0,1-.07.08,2.17,2.17,0,0,0-.45,0h0a2.05,2.05,0,0,0-.45,0,.07.07,0,0,1-.07-.08.08.08,0,0,1,.07-.09h.3V8.22h-.3a.08.08,0,0,1,0-.16h.3l.25,0a.07.07,0,0,1,.07.08v.39A.81.81,0,0,1,68.71,8"/><path class="cls-1" d="M70.82,9.74a.09.09,0,0,1,.07.09.08.08,0,0,1-.07.08,2.17,2.17,0,0,0-.45,0h0a2.17,2.17,0,0,0-.45,0,.07.07,0,0,1-.07-.08.08.08,0,0,1,.07-.09h.3V8.22h-.3a.08.08,0,0,1,0-.16h.3l.25,0a.07.07,0,0,1,.07.08V9.75h.3m-.46-2.21a.22.22,0,0,1-.21-.21.21.21,0,0,1,.21-.2.2.2,0,0,1,.2.2.21.21,0,0,1-.2.21"/><path class="cls-1" d="M72.53,8.14a.09.09,0,0,1,.07-.09l.26,0h.29s.07,0,.07.08a.07.07,0,0,1-.07.08,1.79,1.79,0,0,0-.29,0v2.7h.29s.07,0,.07.09a.06.06,0,0,1-.07.07,3,3,0,0,0-.44,0h0a3.42,3.42,0,0,0-.45,0,.07.07,0,0,1-.07-.07.08.08,0,0,1,.07-.09h.3V9.63A.64.64,0,0,1,72,10c-.46,0-.78-.4-.78-1s.32-1,.78-1a.64.64,0,0,1,.55.34Zm-.54,0c-.28,0-.42.21-.42.82s.14.83.42.83.54-.29.54-.83-.23-.82-.54-.82"/><path class="cls-1" d="M74.23,10c-.4,0-.54-.29-.54-.68V8.21a2,2,0,0,0-.3,0s-.06,0-.06-.08,0-.08.06-.08h.3l.26,0a.08.08,0,0,1,.07.09V9.43c0,.25.07.36.25.36s.6-.43.6-.9V8.21a2,2,0,0,0-.3,0,.08.08,0,0,1,0-.16h.3l.26,0a.08.08,0,0,1,.07.09v1.5c0,.13,0,.17.09.17s.06-.06.11-.1a.07.07,0,0,1,.1,0s0,.09,0,.12a.43.43,0,0,1-.31.1.31.31,0,0,1-.3-.35V9.44a.78.78,0,0,1-.64.52"/><path class="cls-1" d="M76.16,9c0,.56.2.83.54.83a.54.54,0,0,0,.55-.39s0-.07.08-.07a.07.07,0,0,1,.07.07.37.37,0,0,1,0,.09.77.77,0,0,1-.74.46.93.93,0,0,1-.85-1,.92.92,0,0,1,.85-1,.7.7,0,0,1,.74.81H76.17a.91.91,0,0,0,0,.17M77,8.65a.41.41,0,0,0,0-.16.32.32,0,0,0-.35-.34c-.23,0-.43.09-.5.5Z"/><path class="cls-1" d="M78.5,10a.68.68,0,0,1-.73-.5A.19.19,0,0,1,78,9.27a.18.18,0,0,1,.16.15A.18.18,0,0,1,78,9.6a.59.59,0,0,0,.5.22c.23,0,.46-.12.46-.35s-.21-.25-.39-.3l-.19-.06c-.47-.12-.56-.31-.56-.54A.6.6,0,0,1,78.5,8c.32,0,.62.16.62.38a.2.2,0,0,1-.19.22.18.18,0,0,1-.17-.17.17.17,0,0,1,.1-.15.4.4,0,0,0-.34-.14c-.26,0-.44.13-.44.34s.14.22.31.27l.22.06c.39.1.62.26.62.58s-.33.59-.73.59"/></g></g></svg>